<?xml version="1.0" encoding="UTF-8"?>
<svg id="Layer_1" xmlns="http://www.w3.org/2000/svg" viewBox="0 0 1024 516">
  <defs>
    <style>
      .cls-1 {
        fill: #2c4f26;
      }
    </style>
  </defs>
  <g>
    <path class="cls-1" d="M549.22,230.99c0-11.77-7.71-19.81-17.98-19.81s-17.98,8.04-17.98,19.81,7.71,19.81,17.98,19.81,17.98-8.04,17.98-19.81M491.89,230.99c0-23.27,16.8-39.35,39.35-39.35s39.35,16.02,39.35,39.35-16.8,39.35-39.35,39.35-39.35-16.02-39.35-39.35"/>
    <path class="cls-1" d="M615.77,209.81c-7.71,0-12.29,5.43-12.29,16.02v42.3c0,.39-.33.72-.65.72h-20.59c-.39,0-.65-.33-.65-.72v-74.26c0-.39.33-.72.65-.72h20.13c.39,0,.65.33.65.72v9.48c4.38-7.58,11.77-11.64,20.72-11.64,10.46,0,18.89,4.51,23.14,13.92,4.38-8.89,12.88-13.92,23.27-13.92,15.1,0,26.34,9.67,26.34,29.35v47.13c0,.39-.33.72-.72.72h-20.59c-.39,0-.65-.33-.65-.72v-42.3c0-10.59-4.51-16.02-12.29-16.02s-12.42,5.43-12.42,16.02v42.3c0,.39-.33.72-.65.72h-20.4c-.39,0-.72-.33-.72-.72v-42.3c0-10.59-4.51-16.02-12.42-16.02"/>
    <path class="cls-1" d="M728.01,224.19h34.19c-1.83-9.54-7.84-14.51-17.13-14.51s-15.3,4.97-17.06,14.51M727.82,237.07c1.7,10,7.84,15.43,17.85,15.43,6.8,0,11.24-2.42,13.47-7.19.13-.26.33-.39.65-.39h20.85c.46,0,.78.46.65.85-4.9,16.08-17.91,24.51-36.22,24.51-22.23,0-38.24-16.21-38.24-39.35s16.02-39.35,38.24-39.35,38.31,16.21,38.31,39.35c0,2.09-.13,4.05-.33,6.08h-55.24v.07Z"/>
    <path class="cls-1" d="M483.2,328.4c-8.63,0-13.6,5.88-13.6,17.26v41.05c0,.39-.33.72-.65.72h-20.59c-.39,0-.72-.33-.72-.72v-74.26c0-.39.33-.72.72-.72h20.07c.39,0,.72.33.72.72v10.33c4.51-8.04,12.55-12.55,22.1-12.55,15.75,0,27.52,10.13,27.52,30.4v46.09c0,.39-.33.72-.72.72h-20.59c-.39,0-.65-.33-.65-.72v-41.05c0-11.37-4.97-17.26-13.6-17.26"/>
    <path class="cls-1" d="M564.26,388.93c-19.22,0-34.06-9.41-34.52-25.76,0-.39.33-.72.72-.72h19.81c.39,0,.65.26.65.65.33,6.99,5.95,10.39,13.14,10.39,6.67,0,10.72-2.42,10.72-7.26,0-14.84-43.6-1.5-43.6-32.69,0-14.51,13.34-23.27,30.72-23.27,18.43,0,32.36,10.85,32.82,24.84,0,.39-.26.72-.65.72h-19.81c-.39,0-.65-.26-.65-.65-.33-5.43-5.1-9.48-11.51-9.48s-10,2.55-10,6.99c0,13.34,44.19,1.05,44.19,32.36,0,14.97-13.79,23.93-32.1,23.93"/>
    <path class="cls-1" d="M644.21,370.49c2.75,0,5.75-.59,8.5-1.5v18.17c-3.01.92-8.17,1.83-12.68,1.83-16.02,0-27.85-6.21-27.85-27.26v-32.1h-10.92v-17.85h2.94c4.38,0,7.98-3.53,7.98-7.98v-14.45h21.9v22.42h18.63v17.85h-18.63v30.86c0,6.8,3.2,10,10.13,10"/>
    <path class="cls-1" d="M679.9,342.78h34.19c-1.83-9.54-7.84-14.51-17.13-14.51s-15.3,4.97-17.06,14.51M679.77,355.66c1.7,10,7.84,15.43,17.85,15.43,6.8,0,11.24-2.42,13.47-7.19.13-.26.33-.39.65-.39h20.85c.46,0,.78.46.65.85-4.9,16.08-17.91,24.51-36.22,24.51-22.23,0-38.24-16.21-38.24-39.35s16.02-39.35,38.24-39.35,38.31,16.21,38.31,39.35c0,2.09-.13,4.05-.33,6.08h-55.24v.07Z"/>
    <path class="cls-1" d="M774.1,372.78c9.09,0,16.93-5.3,16.93-15.43v-3.92c-10.46,4.71-26.48,3.33-26.48,12.09,0,4.84,4.25,7.26,9.54,7.26M742.66,367.29c0-31.9,48.11-17.72,48.11-32.55,0-5.3-5.16-8.5-11.96-8.5-7.52,0-11.96,3.86-12.22,10.85,0,.39-.33.65-.72.65h-20.27c-.39,0-.72-.33-.72-.72.39-19.28,17.13-26.87,34.52-26.87s33.27,6.93,33.27,25.1v51.38c0,.39-.33.72-.72.72h-19.81c-.39,0-.72-.33-.72-.72v-10.79c-4.84,9.22-13.6,13.01-24.06,13.01-12.55,0-24.84-6.67-24.84-21.64"/>
    <path class="cls-1" d="M843.85,349.58c0,11.96,7.71,19.81,17.98,19.81s17.98-7.84,17.98-19.81-7.58-19.81-17.98-19.81-17.98,7.84-17.98,19.81M879.87,320.88v-40.01c0-.39.33-.72.65-.72h20.59c.39,0,.72.33.72.72v105.9c0,.39-.33.72-.72.72h-20.27c-.39,0-.72-.33-.72-.72v-8.83c-5.62,6.99-13.47,11.05-22.68,11.05-20.4,0-35.1-15.75-35.1-39.35s14.64-39.35,35.1-39.35c9.09,0,16.8,3.92,22.42,10.59"/>
    <path class="cls-1" d="M421.03,302.64c7.71,0,13.14-5.62,13.14-12.68s-5.43-12.55-13.14-12.55-13.01,5.43-13.01,12.55,5.62,12.68,13.01,12.68"/>
    <path class="cls-1" d="M410.11,311.79v75.05c0,.39.33.72.65.72h20.59c.39,0,.72-.33.72-.72v-75.05c0-.52-.52-.85-.98-.65-3.01,1.37-6.41,2.09-10.13,2.09s-6.93-.78-9.87-2.16c-.46-.2-.98.13-.98.65"/>
    <path class="cls-1" d="M453.06,191.83c-9.02,0-15.1,2.55-21.11,8.17v-50.14s-.33-.46-.52-.33l-20.72,13.21s-.2.2-.2.33v105.44s.07.2.2.26c3.07-1.37,6.54-2.09,10.26-2.09,3.92,0,7.52.78,10.66,2.16.2,0,.33-.13.33-.33v-39.03c0-11.05,4.84-19.02,16.47-18.24,8.37.59,12.94,5.03,12.94,18.24v39.03s.13.33.33.33h20.72s.33-.13.33-.33v-47.07c0-21.05-14.38-29.61-29.74-29.61"/>
    <path class="cls-1" d="M919.62,380.04c.59,0,.98-.26.98-.92s-.39-.92-.98-.92h-1.44v1.83h1.44ZM916.28,376.57h3.46c1.63,0,2.75,1.05,2.75,2.48,0,1.05-.46,1.9-1.37,2.35l1.7,2.48v.2h-1.96l-1.5-2.42h-1.18v2.42h-1.9v-7.58.07ZM924.91,380.23c0-3.73-2.22-5.82-5.69-5.82s-5.69,2.16-5.69,5.82,2.22,5.82,5.69,5.82,5.69-2.16,5.69-5.82M911.38,380.23c0-4.51,3.2-7.98,7.91-7.98s7.91,3.46,7.91,7.98-3.27,7.98-7.91,7.98-7.91-3.46-7.91-7.98"/>
  </g>
  <path class="cls-1" d="M367.11,207.59c-.06-.49-.3-.95-.73-1.22h0l-120.99-77.1c-.56-.35-1.27-.35-1.82,0l-62.89,40.08c-.49.31-.78.85-.78,1.43v42c0,.67.74,1.07,1.3.71l63.29-40.33,85.18,54.28v122.53h-84.66v-43.29c0-29.24-16.28-44.35-36.5-48.93-4.57-1.04-9.34-1.54-14.18-1.54-15.34,0-25.73,4.31-35.98,13.9h0v-84.98c0-.67-.74-1.07-1.3-.72l-34.46,21.91c-.49.31-.79.85-.79,1.43v178.02c0,.94.76,1.7,1.7,1.7h33.13c.93,0,1.69-.76,1.69-1.69l.02-66.25c.25-18.39,8.51-31.52,28.08-30.19v.02c14.26.98,22.05,8.63,22.05,31.04v65.4c0,.94.76,1.7,1.7,1.7h155.29c.94,0,1.7-.76,1.7-1.7v-177.98c0-.07-.04-.14-.05-.21Z"/>
</svg>